<mxfile host="Electron" agent="Mozilla/5.0 (X11; Linux x86_64) AppleWebKit/537.36 (KHTML, like Gecko) draw.io/27.0.9 Chrome/134.0.6998.205 Electron/35.4.0 Safari/537.36" version="27.0.9">
  <diagram name="Page-1" id="rltZyuWDbYtk57MDwY-4">
    <mxGraphModel dx="1471" dy="922" grid="1" gridSize="10" guides="1" tooltips="1" connect="1" arrows="1" fold="1" page="1" pageScale="1" pageWidth="850" pageHeight="1100" math="0" shadow="0">
      <root>
        <mxCell id="0" />
        <mxCell id="1" parent="0" />
        <mxCell id="UMtc2K1z1Mit7hKXZsMp-1" value="" style="rounded=0;whiteSpace=wrap;html=1;fillColor=none;" vertex="1" parent="1">
          <mxGeometry width="1280" height="800" as="geometry" />
        </mxCell>
        <mxCell id="UMtc2K1z1Mit7hKXZsMp-20" value="0" style="rounded=0;whiteSpace=wrap;html=1;rotation=0;" vertex="1" parent="1">
          <mxGeometry x="40" y="40" width="300" height="60" as="geometry" />
        </mxCell>
        <mxCell id="UMtc2K1z1Mit7hKXZsMp-23" value="1" style="rounded=0;whiteSpace=wrap;html=1;rotation=0;" vertex="1" parent="1">
          <mxGeometry x="40" y="160" width="300" height="60" as="geometry" />
        </mxCell>
        <mxCell id="UMtc2K1z1Mit7hKXZsMp-24" value="2" style="rounded=0;whiteSpace=wrap;html=1;rotation=0;" vertex="1" parent="1">
          <mxGeometry x="40" y="280" width="300" height="60" as="geometry" />
        </mxCell>
        <mxCell id="UMtc2K1z1Mit7hKXZsMp-26" value="3" style="rounded=0;whiteSpace=wrap;html=1;rotation=0;" vertex="1" parent="1">
          <mxGeometry x="40" y="400" width="300" height="60" as="geometry" />
        </mxCell>
        <mxCell id="UMtc2K1z1Mit7hKXZsMp-27" value="4" style="rounded=0;whiteSpace=wrap;html=1;rotation=0;" vertex="1" parent="1">
          <mxGeometry x="40" y="640" width="300" height="60" as="geometry" />
        </mxCell>
        <mxCell id="UMtc2K1z1Mit7hKXZsMp-33" value="8" style="rounded=0;whiteSpace=wrap;html=1;rotation=0;" vertex="1" parent="1">
          <mxGeometry x="160" y="520" width="60" height="60" as="geometry" />
        </mxCell>
        <mxCell id="UMtc2K1z1Mit7hKXZsMp-34" value="12" style="rounded=0;whiteSpace=wrap;html=1;rotation=0;" vertex="1" parent="1">
          <mxGeometry x="400" y="400" width="300" height="60" as="geometry" />
        </mxCell>
        <mxCell id="UMtc2K1z1Mit7hKXZsMp-35" value="13" style="rounded=0;whiteSpace=wrap;html=1;rotation=0;" vertex="1" parent="1">
          <mxGeometry x="400" y="640" width="300" height="60" as="geometry" />
        </mxCell>
        <mxCell id="UMtc2K1z1Mit7hKXZsMp-37" value="16" style="rounded=0;whiteSpace=wrap;html=1;rotation=0;" vertex="1" parent="1">
          <mxGeometry x="760" y="280" width="300" height="60" as="geometry" />
        </mxCell>
        <mxCell id="UMtc2K1z1Mit7hKXZsMp-41" value="5" style="rounded=0;whiteSpace=wrap;html=1;rotation=0;" vertex="1" parent="1">
          <mxGeometry x="40" y="720" width="1200" height="60" as="geometry" />
        </mxCell>
        <mxCell id="UMtc2K1z1Mit7hKXZsMp-46" value="18" style="rounded=0;whiteSpace=wrap;html=1;rotation=0;" vertex="1" parent="1">
          <mxGeometry x="760" y="400" width="300" height="60" as="geometry" />
        </mxCell>
        <mxCell id="UMtc2K1z1Mit7hKXZsMp-50" value="20" style="rounded=0;whiteSpace=wrap;html=1;rotation=0;" vertex="1" parent="1">
          <mxGeometry x="1140" y="520" width="60" height="60" as="geometry" />
        </mxCell>
        <mxCell id="UMtc2K1z1Mit7hKXZsMp-52" value="6" style="rounded=0;whiteSpace=wrap;html=1;rotation=0;direction=west;" vertex="1" parent="1">
          <mxGeometry x="40" y="400" width="60" height="300" as="geometry" />
        </mxCell>
        <mxCell id="UMtc2K1z1Mit7hKXZsMp-57" value="7" style="rounded=0;whiteSpace=wrap;html=1;rotation=0;direction=west;" vertex="1" parent="1">
          <mxGeometry x="280" y="400" width="60" height="300" as="geometry" />
        </mxCell>
        <mxCell id="UMtc2K1z1Mit7hKXZsMp-58" value="14" style="rounded=0;whiteSpace=wrap;html=1;rotation=0;direction=west;" vertex="1" parent="1">
          <mxGeometry x="640" y="400" width="60" height="300" as="geometry" />
        </mxCell>
        <mxCell id="UMtc2K1z1Mit7hKXZsMp-59" value="17" style="rounded=0;whiteSpace=wrap;html=1;rotation=0;direction=west;" vertex="1" parent="1">
          <mxGeometry x="760" y="400" width="60" height="300" as="geometry" />
        </mxCell>
        <mxCell id="UMtc2K1z1Mit7hKXZsMp-60" value="19" style="rounded=0;whiteSpace=wrap;html=1;rotation=0;direction=west;" vertex="1" parent="1">
          <mxGeometry x="1000" y="400" width="60" height="300" as="geometry" />
        </mxCell>
        <mxCell id="UMtc2K1z1Mit7hKXZsMp-61" value="9" style="rounded=0;whiteSpace=wrap;html=1;rotation=0;direction=west;" vertex="1" parent="1">
          <mxGeometry x="400" y="40" width="60" height="300" as="geometry" />
        </mxCell>
        <mxCell id="UMtc2K1z1Mit7hKXZsMp-62" value="10" style="rounded=0;whiteSpace=wrap;html=1;rotation=0;direction=west;" vertex="1" parent="1">
          <mxGeometry x="520" y="40" width="60" height="300" as="geometry" />
        </mxCell>
        <mxCell id="UMtc2K1z1Mit7hKXZsMp-63" value="11" style="rounded=0;whiteSpace=wrap;html=1;rotation=0;direction=west;" vertex="1" parent="1">
          <mxGeometry x="640" y="40" width="60" height="300" as="geometry" />
        </mxCell>
        <mxCell id="UMtc2K1z1Mit7hKXZsMp-64" value="15" style="rounded=0;whiteSpace=wrap;html=1;rotation=0;direction=west;" vertex="1" parent="1">
          <mxGeometry x="760" y="40" width="60" height="300" as="geometry" />
        </mxCell>
        <mxCell id="UMtc2K1z1Mit7hKXZsMp-65" value="22" style="rounded=0;whiteSpace=wrap;html=1;rotation=0;direction=west;" vertex="1" parent="1">
          <mxGeometry x="1180" y="40" width="60" height="300" as="geometry" />
        </mxCell>
        <mxCell id="UMtc2K1z1Mit7hKXZsMp-40" value="21" style="rounded=0;whiteSpace=wrap;html=1;rotation=0;" vertex="1" parent="1">
          <mxGeometry x="940" y="40" width="300" height="60" as="geometry" />
        </mxCell>
      </root>
    </mxGraphModel>
  </diagram>
</mxfile>
